<svg id="Layer_1" data-name="Layer 1" xmlns="http://www.w3.org/2000/svg" width="360.9" height="25.67" viewBox="0 0 360.9 25.67">
  <g id="Group_160550" data-name="Group 160550">
    <path id="Path_37571" data-name="Path 37571" d="M218.11,8.18c0-4.72-8.56-8.18-8.56-8.18H197.68V25.39h9.5V16.37h-.14l4.99,9.02h6.24l-5.75-9.67a7.349,7.349,0,0,0,5.6-7.54" fill="#edba64"/>
    <path id="Path_37572" data-name="Path 37572" d="M191.71,0H172.48V14.88c0,6.14,3.64,10.38,11.2,10.38s11.2-4.24,11.2-10.38V0h-3.16Z" fill="#f4959a"/>
    <path id="Path_37573" data-name="Path 37573" d="M156.68,0c-7.51,0-12.98,5.36-12.98,12.83s5.47,12.84,12.98,12.84,12.95-5.36,12.95-12.84S164.16,0,156.68,0" fill="#8e6b9e"/>
    <path id="Path_37574" data-name="Path 37574" d="M121.42,0l9.52,14.66V24.81h5.28V14.66L145.71,0Z" fill="#7275a6"/>
    <path id="Path_37575" data-name="Path 37575" d="M250.42,12.29a6.107,6.107,0,0,1,4.87,6.2c0,3.85-2.51,6.89-7.38,6.89H234.13V0h13.36c4.84,0,7.31,3.08,7.31,6.47a5.68,5.68,0,0,1-4.38,5.83" fill="#95c972"/>
    <path id="Path_37576" data-name="Path 37576" d="M289.03,0l-9.78,25.39h26.34L295.81,0Z" fill="#5ba3ba"/>
    <path id="Path_37577" data-name="Path 37577" d="M277.76,8.18c0-4.72-3.27-8.18-8.56-8.18H257.33V25.39h9.5V16.37h-.14l4.99,9.02h6.24l-5.75-9.67a7.349,7.349,0,0,0,5.6-7.54" fill="#ded971"/>
    <path id="Path_37578" data-name="Path 37578" d="M45.24,8.18C45.24,3.46,41.97,0,36.68,0H24.81V25.39h9.5V16.37h-.14l4.99,9.02H45.4l-5.75-9.67a7.349,7.349,0,0,0,5.6-7.54" fill="#edba64"/>
    <path id="Path_37579" data-name="Path 37579" d="M0,25.33V0H14.35c5.01,0,7.41,3.27,7.41,6.46a5.629,5.629,0,0,1-4.33,5.81,6.062,6.062,0,0,1,4.82,6.19c0,3.68-2.47,6.87-7.44,6.87H0Z" fill="#f4959a"/>
    <path id="Path_37580" data-name="Path 37580" d="M67.31,25.33H47.89V0H67.31V5.51H62.06V9.72h5.25v5.55H62.06v4.55h5.25Z" fill="#ded971"/>
    <g id="Group_160548" data-name="Group 160548">
      <path id="Path_37581" data-name="Path 37581" d="M101.92,14.9l-5.3,10.62L89.41,11.05l-.02-.06L82.24,25.45l-.06-.13L69.56,0H95.4Z" fill="#5ba3ba"/>
      <path id="Path_37582" data-name="Path 37582" d="M101.12,0h8.22l-3.73,7.49-.65,1.29Z" fill="#5ba3ba"/>
    </g>
    <path id="Path_37583" data-name="Path 37583" d="M357.01,12.67c0,7.69-5.52,12.71-13.44,12.71h-8.93l11.02-11.02v5.83h3.24V8.84H337.55v3.24h5.83l-9.85,9.85V0h10.01c7.95,0,13.47,5.06,13.47,12.67Z" fill="#8e6b9e"/>
    <path id="Path_37584" data-name="Path 37584" d="M324.97,0H322.1V6.12L315.98,0h-8.33V25.39h8.27V19.37l6.01,6.02h8.45V0Z" fill="#7275a6"/>
    <g id="Group_160549" data-name="Group 160549">
      <path id="Path_37585" data-name="Path 37585" d="M356.11.64h-.97V.29h2.33V.64h-.97V3.11h-.4V.64Z" fill="#fff"/>
      <path id="Path_37586" data-name="Path 37586" d="M360.52,3.11V1.05L359.5,2.76h-.18l-1.02-1.7V3.1h-.39V.29h.33l1.17,1.98L360.57.29h.33V3.11Z" fill="#fff"/>
    </g>
  </g>
</svg>
