<svg xmlns="http://www.w3.org/2000/svg" width="93.502" height="63.406" viewBox="0 0 93.502 63.406">
  <g id="Group_8" data-name="Group 8" transform="translate(-42.184 -42.283)">
    <g id="Group_6" data-name="Group 6" transform="translate(42.184 42.283)">
      <g id="Group_1" data-name="Group 1" transform="translate(57.242 22.538)">
        <path id="Path_1" data-name="Path 1" d="M374.881,173.373c0-3.36-2.331-5.827-6.1-5.827H360.33v18.075h6.764V179.2h-.1l3.551,6.421h4.444l-4.093-6.883a5.225,5.225,0,0,0,3.985-5.365" transform="translate(-360.33 -167.546)" fill="#efab4d"/>
      </g>
      <path id="Path_2" data-name="Path 2" d="M267.83,169.167H254.138v10.594c0,4.369,2.6,7.388,7.973,7.388s7.971-3.019,7.971-7.388V169.167Z" transform="translate(-216.003 -146.338)" fill="#f08089"/>
      <path id="Path_3" data-name="Path 3" d="M146.071,167.546a9.138,9.138,0,1,0,9.218,9.136,8.876,8.876,0,0,0-9.218-9.136" transform="translate(-119.799 -145.008)" fill="#76578f"/>
      <path id="Path_4" data-name="Path 4" d="M42.184,169.167l6.78,10.434v7.231h3.761V179.6l6.754-10.434Z" transform="translate(-42.184 -146.337)" fill="#576298"/>
      <g id="Group_2" data-name="Group 2" transform="translate(0 45.331)">
        <path id="Path_5" data-name="Path 5" d="M53.782,302.985A4.347,4.347,0,0,1,57.25,307.4c0,2.738-1.787,4.906-5.257,4.906H42.184V294.232h9.51c3.443,0,5.2,2.193,5.2,4.6a4.037,4.037,0,0,1-3.116,4.148" transform="translate(-42.184 -294.232)" fill="#90bf5c"/>
      </g>
      <path id="Path_6" data-name="Path 6" d="M234.5,294.227,227.539,312.3h18.754l-6.966-18.075Z" transform="translate(-194.189 -248.897)" fill="#4694ae"/>
      <g id="Group_3" data-name="Group 3" transform="translate(17.615 45.33)">
        <path id="Path_7" data-name="Path 7" d="M154.639,300.053c0-3.36-2.331-5.827-6.1-5.827h-8.454V312.3h6.764v-6.421h-.1L150.3,312.3h4.444l-4.093-6.883a5.225,5.225,0,0,0,3.985-5.365" transform="translate(-140.088 -294.226)" fill="#e1d159"/>
      </g>
      <g id="Group_4" data-name="Group 4" transform="translate(18.618 0.072)">
        <path id="Path_8" data-name="Path 8" d="M160.21,48.507c0-3.36-2.331-5.826-6.1-5.826h-8.454V60.756h6.764V54.334h-.1l3.551,6.421h4.444l-4.093-6.883a5.225,5.225,0,0,0,3.985-5.365" transform="translate(-145.659 -42.681)" fill="#efab4d"/>
      </g>
      <path id="Path_9" data-name="Path 9" d="M42.184,60.715V42.681H52.4c3.569,0,5.272,2.325,5.272,4.6a4.028,4.028,0,0,1-3.082,4.137,4.319,4.319,0,0,1,3.434,4.407c0,2.623-1.757,4.894-5.3,4.894Z" transform="translate(-42.184 -42.609)" fill="#f08089"/>
      <path id="Path_10" data-name="Path 10" d="M255.045,60.714H241.22V42.681h13.824V46.6h-3.736v3h3.736v3.947h-3.736v3.244h3.736Z" transform="translate(-205.409 -42.609)" fill="#e1d159"/>
      <g id="Group_5" data-name="Group 5" transform="translate(52.203 0)">
        <path id="Path_11" data-name="Path 11" d="M355.357,52.891l-3.767,7.564-5.133-10.308-.021-.041-5.088,10.3-.046-.092-8.979-18.029h18.394Z" transform="translate(-332.323 -42.283)" fill="#4694ae"/>
        <path id="Path_12" data-name="Path 12" d="M457.193,42.283h5.849l-2.654,5.33-.46.924Z" transform="translate(-434.726 -42.283)" fill="#4694ae"/>
      </g>
      <path id="Path_13" data-name="Path 13" d="M466.544,303.25c0,5.475-3.93,9.051-9.565,9.051h-6.357l7.846-7.846v4.152h2.3v-8.084h-8.084v2.3h4.152l-7.015,7.015V294.227h7.126C462.615,294.227,466.544,297.831,466.544,303.25Z" transform="translate(-376.481 -248.896)" fill="#76578f"/>
      <path id="Path_14" data-name="Path 14" d="M356.353,294.226h-2.04v4.358l-4.358-4.358h-5.933V312.3h5.889v-4.28l4.28,4.28h6.01V294.226Z" transform="translate(-289.715 -248.896)" fill="#576298"/>
    </g>
    <g id="Group_7" data-name="Group 7" transform="translate(131.429 87.633)">
      <path id="Path_15" data-name="Path 15" d="M538.915,294.592H538.2v-.258h1.72v.258h-.713v1.821h-.294Z" transform="translate(-538.202 -294.334)" fill="#fff"/>
      <path id="Path_16" data-name="Path 16" d="M551.49,296.413l0-1.515-.752,1.263H550.6l-.752-1.254v1.506h-.285v-2.079h.243l.867,1.462.856-1.462h.243l0,2.079Z" transform="translate(-547.518 -294.334)" fill="#fff"/>
    </g>
  </g>
</svg>
